<?xml version="1.0" encoding="UTF-8"?>
<svg id="Ebene_1" xmlns="http://www.w3.org/2000/svg" version="1.1" viewBox="0 0 64 64">
  <!-- Generator: Adobe Illustrator 29.8.2, SVG Export Plug-In . SVG Version: 2.1.1 Build 3)  -->
  <rect x="10" y="9.44" width="43.68" height="46.19" fill="#fff"/>
  <path d="M45.5,1.64h-27.29C8.89,1.64,1.34,9.19,1.34,18.51v27.29c0,9.32,7.55,16.87,16.87,16.87h27.29c9.32,0,16.87-7.55,16.87-16.87v-27.29c0-9.32-7.55-16.87-16.87-16.87ZM51.54,34.32c-.63.63-1.38.94-2.26.94h-10.65l-10.76,12.78h-4.79l6.11-12.78h-7.65l-2.45,5.25h-3.99l1.49-8.44-1.49-8.44h3.99l2.45,5.25h7.65l-6.11-12.78h4.79l10.76,12.78h10.65c.88,0,1.63.31,2.26.94s.94,1.38.94,2.26-.31,1.63-.94,2.26v-.02Z" fill="#7183f5"/>
</svg>