<?xml version="1.0" encoding="UTF-8"?>
<svg id="Ebene_1" xmlns="http://www.w3.org/2000/svg" version="1.1" viewBox="0 0 64 64">
  <!-- Generator: Adobe Illustrator 29.8.2, SVG Export Plug-In . SVG Version: 2.1.1 Build 3)  -->
  <path d="M45.5,1.64h-27.29c-9.32,0-16.87,7.55-16.87,16.87v27.29c0,9.32,7.55,16.87,16.87,16.87h27.29c9.32,0,16.87-7.55,16.87-16.87v-27.29c0-9.32-7.55-16.87-16.87-16.87ZM51.54,34.32c-.63.63-1.38.94-2.26.94h-10.65s-10.76,12.78-10.76,12.78h-4.79s6.11-12.78,6.11-12.78h-7.65s-2.45,5.25-2.45,5.25h-3.99s1.49-8.44,1.49-8.44l-1.49-8.44h3.99s2.45,5.25,2.45,5.25h7.65s-6.11-12.78-6.11-12.78h4.79s10.76,12.78,10.76,12.78h10.65c.88,0,1.63.31,2.26.94s.94,1.38.94,2.26-.31,1.63-.94,2.26Z" fill="#7183f5"/>
</svg>