<?xml version="1.0" encoding="UTF-8"?>
<svg id="Ebene_1" xmlns="http://www.w3.org/2000/svg" version="1.1" viewBox="0 0 604.63 121.54">
  <!-- Generator: Adobe Illustrator 29.8.1, SVG Export Plug-In . SVG Version: 2.1.1 Build 2)  -->
  <g>
    <rect x="152.92" y="37.77" width="409.25" height="61.87" fill="none"/>
    <path d="M175.5,49.37v8.2h-22.36v-8.2h22.36ZM157.82,84.23v-36.61c0-2.7.5-4.94,1.5-6.72,1-1.78,2.4-3.11,4.19-3.99,1.8-.88,3.88-1.33,6.25-1.33,1.54,0,2.99.12,4.37.36,1.37.24,2.38.45,3.02.64l-1.75,8.11c-.42-.12-.91-.23-1.48-.33-.57-.09-1.13-.14-1.67-.14-1.29,0-2.18.29-2.67.87-.49.58-.73,1.37-.73,2.37v36.76h-11.04Z" fill="#7183f5"/>
    <path d="M191.37,37.77v46.46h-11.1v-46.46h11.1Z" fill="#7183f5"/>
    <path d="M203.21,45.38c-1.56,0-2.9-.52-4.02-1.56-1.12-1.04-1.68-2.3-1.68-3.77s.56-2.73,1.68-3.76c1.12-1.03,2.46-1.54,4.02-1.54s2.93.51,4.04,1.54c1.11,1.03,1.67,2.28,1.67,3.76s-.56,2.73-1.67,3.77c-1.11,1.04-2.46,1.56-4.04,1.56ZM197.69,84.23v-34.86h11.1v34.86h-11.1Z" fill="#7183f5"/>
    <path d="M231.04,84.89c-3.66,0-6.81-.72-9.45-2.17-2.64-1.44-4.66-3.51-6.07-6.19s-2.1-5.88-2.1-9.6.71-6.74,2.12-9.43,3.41-4.79,5.99-6.3c2.58-1.51,5.61-2.26,9.11-2.26,2.47,0,4.74.39,6.81,1.17s3.86,1.92,5.36,3.43c1.51,1.51,2.67,3.36,3.49,5.57.82,2.2,1.23,4.75,1.23,7.64v2.74h-30.28v-6.39h25.01l-5.18,1.5c0-1.6-.24-2.97-.72-4.1-.48-1.13-1.19-2.01-2.12-2.63-.93-.62-2.1-.94-3.49-.94s-2.57.31-3.52.94c-.96.62-1.68,1.49-2.18,2.6s-.75,2.43-.75,3.94v4.58c0,1.62.29,3.02.86,4.21.57,1.18,1.38,2.09,2.43,2.73,1.05.63,2.26.95,3.63.95.96,0,1.83-.13,2.62-.41.79-.27,1.47-.67,2.03-1.2s.99-1.17,1.28-1.92l10.17.28c-.42,2.29-1.33,4.27-2.74,5.96-1.41,1.68-3.26,2.99-5.55,3.91-2.29.92-4.95,1.39-7.98,1.39Z" fill="#7183f5"/>
    <path d="M268.13,98.01c-4.97,0-8.86-1.01-11.66-3.02s-4.41-4.55-4.8-7.61l10.48-.59c.19.73.55,1.36,1.08,1.89s1.23.94,2.1,1.23,1.9.44,3.09.44c1.87,0,3.42-.45,4.63-1.36s1.82-2.47,1.82-4.69v-6.14h-.41c-.44,1.06-1.1,2.02-2,2.87-.89.85-2,1.52-3.32,2.01-1.32.49-2.84.73-4.57.73-2.54,0-4.86-.59-6.97-1.78-2.11-1.18-3.79-3.03-5.05-5.54-1.26-2.5-1.89-5.72-1.89-9.65s.65-7.46,1.95-10.09c1.3-2.63,3.01-4.58,5.13-5.86,2.12-1.28,4.4-1.92,6.83-1.92,1.83,0,3.4.31,4.71.94,1.31.62,2.4,1.43,3.27,2.42s1.53,2.01,1.96,3.07h.31v-5.99h10.94v35.02c0,2.93-.74,5.42-2.23,7.45s-3.55,3.58-6.21,4.62c-2.65,1.04-5.72,1.56-9.21,1.56ZM268.44,75.69c2.02,0,3.59-.79,4.72-2.37,1.13-1.58,1.7-3.76,1.7-6.55,0-1.89-.25-3.52-.76-4.9-.51-1.37-1.24-2.43-2.2-3.18-.96-.75-2.11-1.12-3.46-1.12s-2.54.39-3.49,1.15c-.96.77-1.68,1.84-2.17,3.21s-.73,2.98-.73,4.83.25,3.44.75,4.77c.5,1.33,1.22,2.35,2.17,3.07.95.72,2.1,1.08,3.48,1.08Z" fill="#7183f5"/>
    <path d="M302.53,64.37v19.86h-11.1v-46.46h10.7v18.02h.41c.79-2.14,2.08-3.82,3.87-5.04,1.79-1.22,3.99-1.82,6.61-1.82,2.43,0,4.56.54,6.38,1.64s3.23,2.61,4.22,4.57,1.5,4.25,1.5,6.89v22.2h-11.1v-20.02c0-1.93-.49-3.45-1.46-4.54-.98-1.09-2.36-1.64-4.15-1.64-1.16,0-2.19.25-3.07.75-.88.5-1.57,1.22-2.06,2.17-.49.95-.73,2.08-.73,3.41Z" fill="#7183f5"/>
    <path d="M346.94,84.89c-3.66,0-6.81-.72-9.45-2.17-2.64-1.44-4.66-3.51-6.06-6.19-1.4-2.68-2.11-5.88-2.11-9.6s.71-6.74,2.12-9.43,3.41-4.79,5.99-6.3c2.58-1.51,5.61-2.26,9.11-2.26,2.47,0,4.74.39,6.81,1.17s3.86,1.92,5.36,3.43c1.51,1.51,2.67,3.36,3.49,5.57.82,2.2,1.23,4.75,1.23,7.64v2.74h-30.28v-6.39h25.01l-5.18,1.5c0-1.6-.24-2.97-.72-4.1-.48-1.13-1.19-2.01-2.12-2.63-.94-.62-2.1-.94-3.49-.94s-2.57.31-3.52.94c-.96.62-1.68,1.49-2.18,2.6-.5,1.11-.75,2.43-.75,3.94v4.58c0,1.62.29,3.02.86,4.21.57,1.18,1.38,2.09,2.43,2.73,1.05.63,2.26.95,3.63.95.96,0,1.83-.13,2.62-.41.79-.27,1.47-.67,2.03-1.2.56-.53.99-1.17,1.28-1.92l10.16.28c-.42,2.29-1.33,4.27-2.74,5.96-1.41,1.68-3.26,2.99-5.55,3.91-2.29.92-4.95,1.39-7.98,1.39Z" fill="#7183f5"/>
    <path d="M390.33,69.2v-19.83h11.1v34.86h-10.6v-6.49h-.37c-.75,2.12-2.05,3.81-3.9,5.07-1.85,1.26-4.09,1.88-6.71,1.86-2.37,0-4.45-.54-6.25-1.62-1.8-1.08-3.2-2.6-4.21-4.57-1.01-1.96-1.51-4.26-1.51-6.88v-22.23h11.1v20.08c0,1.87.49,3.35,1.48,4.44.99,1.09,2.33,1.63,4.04,1.61,1.1,0,2.09-.24,2.96-.73s1.57-1.2,2.09-2.14c.52-.94.78-2.08.78-3.43Z" fill="#7183f5"/>
    <path d="M427.08,49.37v8.2h-21.95v-8.2h21.95ZM409.71,41.08h11.07v32.18c0,.94.23,1.64.69,2.11s1.17.7,2.15.7c.37,0,.8-.04,1.29-.12.49-.08.87-.17,1.14-.25l1.65,8.04c-1.25.35-2.41.61-3.48.76-1.07.16-2.12.23-3.16.23-3.7,0-6.52-.88-8.45-2.63s-2.9-4.29-2.9-7.59v-33.43Z" fill="#7183f5"/>
    <path d="M446.91,84.89c-3.66,0-6.81-.72-9.45-2.17-2.64-1.44-4.66-3.51-6.06-6.19-1.4-2.68-2.11-5.88-2.11-9.6s.71-6.74,2.12-9.43,3.41-4.79,5.99-6.3c2.58-1.51,5.61-2.26,9.11-2.26,2.47,0,4.74.39,6.81,1.17s3.86,1.92,5.36,3.43c1.51,1.51,2.67,3.36,3.49,5.57.82,2.2,1.23,4.75,1.23,7.64v2.74h-30.28v-6.39h25.01l-5.18,1.5c0-1.6-.24-2.97-.72-4.1-.48-1.13-1.19-2.01-2.12-2.63-.94-.62-2.1-.94-3.49-.94s-2.57.31-3.52.94c-.96.62-1.68,1.49-2.18,2.6-.5,1.11-.75,2.43-.75,3.94v4.58c0,1.62.29,3.02.86,4.21.57,1.18,1.38,2.09,2.43,2.73,1.05.63,2.26.95,3.63.95.96,0,1.83-.13,2.62-.41.79-.27,1.47-.67,2.03-1.2.56-.53.99-1.17,1.28-1.92l10.16.28c-.42,2.29-1.33,4.27-2.74,5.96-1.41,1.68-3.26,2.99-5.55,3.91-2.29.92-4.95,1.39-7.98,1.39Z" fill="#7183f5"/>
    <path d="M473.95,84.92c-1.69,0-3.1-.57-4.24-1.7-1.14-1.13-1.71-2.53-1.71-4.19s.57-3.06,1.71-4.19c1.14-1.13,2.56-1.7,4.24-1.7s3.1.57,4.24,1.7c1.14,1.13,1.71,2.53,1.71,4.19s-.57,3.06-1.71,4.19c-1.14,1.13-2.56,1.7-4.24,1.7Z" fill="#7183f5"/>
    <path d="M497.82,84.73c-2.56,0-4.89-.67-7-2-2.11-1.33-3.79-3.33-5.04-5.99-1.25-2.66-1.87-5.97-1.87-9.92s.65-7.46,1.95-10.1c1.3-2.64,3-4.6,5.1-5.88,2.1-1.28,4.37-1.92,6.8-1.92,1.83,0,3.39.31,4.69.94,1.3.62,2.38,1.43,3.23,2.42.85.99,1.5,2.01,1.93,3.07h.22v-17.59h11.1v46.46h-10.95v-5.67h-.38c-.48,1.08-1.14,2.09-2,3.02-.85.94-1.92,1.69-3.21,2.28s-2.82.87-4.58.87ZM501.66,76.09c1.35,0,2.5-.38,3.46-1.15.96-.77,1.69-1.84,2.21-3.23.52-1.38.78-3.01.78-4.88s-.26-3.56-.76-4.94c-.51-1.38-1.25-2.45-2.21-3.2s-2.12-1.12-3.48-1.12-2.51.39-3.46,1.15c-.96.77-1.68,1.84-2.17,3.23s-.73,3.01-.73,4.88.25,3.47.75,4.86c.5,1.39,1.22,2.47,2.17,3.24.95.77,2.09,1.15,3.45,1.15Z" fill="#7183f5"/>
    <path d="M541.63,84.89c-3.66,0-6.81-.72-9.45-2.17-2.64-1.44-4.66-3.51-6.07-6.19-1.4-2.68-2.1-5.88-2.1-9.6s.71-6.74,2.12-9.43,3.41-4.79,5.99-6.3c2.58-1.51,5.61-2.26,9.11-2.26,2.47,0,4.74.39,6.81,1.17s3.86,1.92,5.36,3.43c1.51,1.51,2.67,3.36,3.49,5.57.82,2.2,1.23,4.75,1.23,7.64v2.74h-30.28v-6.39h25.01l-5.18,1.5c0-1.6-.24-2.97-.72-4.1s-1.19-2.01-2.12-2.63c-.93-.62-2.1-.94-3.49-.94s-2.57.31-3.52.94c-.96.62-1.68,1.49-2.18,2.6-.5,1.11-.75,2.43-.75,3.94v4.58c0,1.62.29,3.02.86,4.21.57,1.18,1.38,2.09,2.43,2.73,1.05.63,2.26.95,3.63.95.96,0,1.83-.13,2.62-.41.79-.27,1.46-.67,2.03-1.2.56-.53.99-1.17,1.28-1.92l10.17.28c-.42,2.29-1.33,4.27-2.74,5.96-1.41,1.68-3.26,2.99-5.55,3.91s-4.95,1.39-7.98,1.39Z" fill="#7183f5"/>
  </g>
  <path d="M83.94,8.07h-46.92c-16.02,0-29,12.98-29,29v46.92c0,16.02,12.98,29,29,29h46.92c16.02,0,29-12.98,29-29v-46.92c0-16.02-12.98-29-29-29ZM94.31,64.26c-1.08,1.08-2.37,1.61-3.88,1.61h-18.31l-18.49,21.97h-8.24l10.5-21.97h-13.15l-4.21,9.02h-6.87l2.56-14.51-2.56-14.51h6.87l4.21,9.02h13.15l-10.5-21.97h8.24l18.49,21.97h18.31c1.51,0,2.8.54,3.88,1.61s1.61,2.37,1.61,3.88-.54,2.8-1.61,3.88Z" fill="#7183f5"/>
</svg>