<?xml version="1.0" encoding="UTF-8"?>
<svg id="Ebene_1" xmlns="http://www.w3.org/2000/svg" version="1.1" viewBox="0 0 404.13 492.39">
  <!-- Generator: Adobe Illustrator 29.8.1, SVG Export Plug-In . SVG Version: 2.1.1 Build 2)  -->
  <polygon id="pfläche_taxi" points="341.65 31.13 325.43 34.57 259.4 111.09 149.74 107.22 127.12 111.09 103.3 120.62 87.11 135.2 76.33 155.49 71.41 206.25 71.41 276.38 38.4 276.38 30.57 278.36 34.81 292.98 47.91 306.4 68.79 318.71 99.95 415.2 105.48 433.97 113.51 450.19 135.11 464.18 160.19 472.02 179.4 467.78 202.12 459.71 214.91 444.04 223.26 415.2 223.26 361.71 233.11 367.39 268.08 379.7 329.34 396.62 354.4 399.72 374.56 392.81 369.95 380.26 313.76 352.32 280.35 332.82 256.29 321.63 282.1 327.48 305.39 327.1 336.85 312.77 349 295.57 355.08 269.95 344.82 244.86 322.14 234.35 296.7 232.74 272.09 232.74 247.89 235.35 233.05 233.85 229.17 209.05 235.35 186.31 280.35 186.3 297.45 186.31 317.59 196.18 349 198.42 352.73 186.31 337.73 167.21 322.14 157.58 331.58 155.49 349 139.11 355.64 120.46 349 115.61 339.97 111.09 351.41 87.08 358.96 57.43 363.47 31.13 341.65 31.13" fill="#fdd246"/>
  <ellipse cx="86.52" cy="375.25" rx="32.16" ry="39.94" fill="#fff"/>
  <g>
    <g>
      <polygon points="36.6 275.38 72.66 275.38 72.66 316.66 54.35 308.45 34.81 292.98 30.57 283.34 30.57 275.38 36.6 275.38" fill="#5abdbc"/>
      <polygon points="216.14 324.5 244.48 320.39 259.4 321.39 280.35 334.07 333.01 362.17 369.95 380.26 373.79 390.02 367.33 398.22 344.45 400.46 286.51 386.54 236.28 367.89 200.97 353.96 186.55 344.01 190.75 335.31 216.14 324.5" fill="#5abdbc"/>
    </g>
    <g>
      <polygon points="247.97 124.17 259.16 127.67 278.05 127.67 296.7 127.67 323.06 119.72 339.97 111.09 345.19 104.55 353.37 79.37 360.36 50.59 363.47 31.13 343.21 31.13 329.78 31.13 323.81 34.57 276.81 87.64 257.91 112.75 247.97 124.17" fill="#5abdbc"/>
      <polygon points="263.6 160.03 329.78 158.51 341.36 171.83 352.65 184.87 351.41 192.82 345.44 198.05 326.3 198.05 307.19 193.84 284.77 179.89 268.08 166.22 263.6 160.03" fill="#5abdbc"/>
    </g>
  </g>
  <path d="M114.48,354.38s10.84,2.71,39.16-28.31c21.54-23.59,34.86-23.64,45.51-24.15s82.94.56,148.65-3.54c6.77-.42-14.01,18.73-14.01,18.73l-51.7,10.36-42.59-5.59-49.9,13.05v11.19l31.6,17.53s-7.33,12.81-53.55,36.81c-18.64,9.67-39.37.21-50.93-5.39-11.56-5.59,13.05-3.02-2.24-40.69Z" fill="#fff"/>
  <ellipse cx="192.07" cy="161.43" rx="7.38" ry="10.4" fill="#fff"/>
  <ellipse cx="160.41" cy="243.16" rx="24.87" ry="11.67" transform="translate(-56.78 49.03) rotate(-14.8)" fill="#f571b4"/>
  <ellipse cx="124.75" cy="161.43" rx="7.38" ry="10.4" fill="#fff"/>
  <g>
    <path d="M184.81,203.64c-14.21,5.76-34.24,7.95-49.13,4.11-6.22-1.6-14.4-7.77-15.74,3.32-2.76,22.73,10.11,50.5,35.83,50.81,23.89.29,34.65-18.88,35.89-40.27.27-4.71.65-18.87-6.85-17.97ZM138.41,247.88c3.88-10.47,17.65-15.97,28.1-16.73,5.15-.37,11.06.16,15.45,2.98-5.83,18.16-28.69,27.09-43.56,13.75Z" fill="#150f26"/>
    <path d="M119.27,148.26c-17,2.67-15.58,36.24-.12,37.94,21.82,2.4,20.68-41.18.12-37.94ZM123.58,155.49c4.15-.18,5.11,8.79.4,9.08-4.69.29-5.1-8.88-.4-9.08Z" fill="#150f26"/>
    <path d="M187.69,148.27c-16.13,2.3-15.59,34.13-1.24,37.6,22.08,5.34,23.07-40.71,1.24-37.6ZM191.89,164.56c-4.27-.06-4.57-8.86.1-9.07,4.2-.19,5.27,9.15-.1,9.07Z" fill="#150f26"/>
  </g>
  <path d="M372.12,377.84s-85.24-45.09-85.24-45.09c-.13-.79.65-.45,1.19-.48,28.69-1.33,55.74-10.05,66.27-39.26,8.8-24.4.38-59.91-29.7-62.34-27.4-2.21-56.03,1.13-82.88.44-1.18-.03-6.9.69-6.7-5.97,0,0,.04-29.02.04-29.03-.12-7.58,11.04-6.48,13.94-6.44,14.46.21,28.93-.19,43.39-.03,17.64,9.63,31.05,13.84,51.56,12.07,10.74-.92,18.42-11.71,12.02-20.25-9.35-12.47-21.04-20.45-20.16-21.38,9.61-9.22,24.13-29.13,24.31-41.54.14-1.82-5.36-5.63-14.37-8.97,5.73-14.03,22.94-57.89,22.96-77.83-.58-5.67-4.54-6.7-20.81-6.82-3.8-.02-14.16.18-16.83.93-2.77.8-9.27,2.67-51.47,52.58-7.38,8.72-14.59,17.43-20.8,25-37.11.74-74.34-1.54-111.47-.52-42.04,1.94-74.82,30.17-79.26,72.51,0,0,.02,95.17.02,95.17,0,0-19.78-.6-28.18,0-8.41.6-13.54,1.36-13.51,11.54.02,10.18,7.78,17.35,15.53,23.06,8.3,6.11,17.09,11.49,26.19,16.31,0,0-.11,17.17-.11,17.17-14.21,12.47-18.54,34.03-13.64,51.88,5.1,18.57,22.5,32.82,42.15,25.54,8.54,79.21,123.84,79.24,131.07-.22.84-15.22-.67-31.21-.02-46.51,31.19,10.28,118,48.94,144.98,29.59,7.44-5.69,6.57-15.57-.47-21.13ZM68.14,312.04c-9.33-5.03-20.25-11.24-28.17-18.32-3.28-2.93-9.75-14.06-.01-14.44,9.73-.38,28.18,0,28.18,0v32.76ZM343.71,178.83c1.91,2.39,5.42,6.44,5.28,9.59-.12,2.69-2.09,4.55-4.66,4.98-4.12.69-14.25.43-18.7.14-12.97-.85-33.4-13.83-44.21-21.31l-13.34-10.03h60.14c5.25,5.62,10.67,10.6,15.49,16.63ZM286.58,85.15c36.78-43.51,45.37-49.31,47.15-50.01,3.13-.55,18.77-.88,25.23-.14-1.74,19.85-18.3,73.36-22.06,75.02-23.58,7.83-52.59,17.66-81.47,12.9,3.15-3.92,25.87-31.52,31.15-37.77ZM77.93,408c-26.57-10.88-20.96-65.22,6.96-67.88,19.45-1.86,29.71,22.39,28.53,38.64-1.28,17.67-15.96,37.24-35.49,29.24ZM209.99,443.53c-32.11,44.79-104.5,23.68-105.49-31.75,17.9-13.15,21.14-38.08,12.39-57.66-6.97-15.6-23.2-27.94-40.55-19.91v-156.82c2.4-37.97,35.81-66.05,73.45-66.27,34.15-.21,67.76,1.11,102.14.81-7.7,9.47-8.91,11.07-9,11.2-1.02,1.28-1.32,2.98-.8,4.53.52,1.55,1.78,2.73,3.36,3.14,6.84,1.77,14.03,2.52,21.27,2.52,34.84,0,67.39-13.19,73.57-16.26,3.61,1.01,7.77,1.89,11.09,3.42-2.96,13.38-12.2,23.6-21,33.71-17.29-.77-57.55-.47-68.61-.42-13.08-.19-4.55,11.7,2.68,16.62l14.68,10.61-29.17.03c-10.31-.27-23.57.21-23.85,11.28-.3,9.09-.85,26.68.08,35.61.65,6.31,3.09,10.24,10.76,10.92,27.18.97,55.33-1.36,82.4-.01,10.25.51,17.47,2.29,23.57,11.12,9.83,14.24,7.87,35.31-.96,49.54-14.46,23.34-42.68,24.28-67.44,25.6-4.99-2.86-9.25-6.55-15.15-7.98-15.4-3.74-52.22,4.5-66.51,12.03-12.56,6.61-14.6,18.77-.79,25.4,8.71,4.18,18.7,6.79,27.32,11.32-.05,3.04-.04,10.52-.02,13.65-1.05,22.26,4.38,44.76-9.43,64.04ZM356.91,396.29c-21.77,2.69-64.74-12.08-86.31-19.56-24-8.33-51.77-18.6-74.63-29.44-3.74-1.77-7.61-4.34-3.37-8.59,13.49-9.15,48.71-16.72,64.39-13.41,5.85,1.49,11.71,6.49,17.03,9.47,30.21,16.95,61.21,32.56,91.7,48.98,10.71,7.47-1.47,11.64-8.81,12.55Z" fill="#150f26"/>
  <circle cx="282.1" cy="278.36" r="8.41" fill="#150f26"/>
  <circle cx="247.89" cy="278.36" r="8.39" transform="translate(-68.31 80.99) rotate(-16.34)" fill="#150f26"/>
  <circle cx="313.76" cy="278.39" r="8.38" fill="#150f26"/>
  <circle cx="214.91" cy="278.38" r="8.35" fill="#150f26"/>
  <path d="M83.9,349.02c-21.36,3.13-21.51,49.71.36,51.9,28.88,2.9,26.93-55.9-.36-51.9ZM89.08,384.55c-3.52,2.43-7.24.54-9.32-2.73-3.17-4.98-1.63-15.93,5.11-16.93,8.41-1.26,11.64,14.55,4.21,19.66Z"/>
  <path d="M87.41,357.43c.29.28,3.55-.13,4.67,2.24.71,1.5,0-2.94,3.67-2.21-.81-2.81-7.88-5.47-7.24-4.27s.26,3.08-1.1,4.25Z" fill="#fff"/>
  <path d="M86.47,393.45c-.32-.25-3.51.53-4.89-1.71-.87-1.42.32,2.93-3.41,2.62,1.11,2.71,8.44,4.58,7.67,3.46s-.6-3.04.62-4.36Z" fill="#fff"/>
</svg>
